<mxfile host="app.diagrams.net" modified="2023-10-15T18:34:09.991Z" agent="Mozilla/5.0 (Windows NT 10.0; Win64; x64) AppleWebKit/537.36 (KHTML, like Gecko) Chrome/106.0.0.0 Safari/537.36" etag="9gtpdp3bQcE3Y5pHL2NC" version="22.0.4" type="device">
  <diagram name="Page-1" id="GtR11DJqTOr3iu6drcB8">
    <mxGraphModel dx="2284" dy="729" grid="1" gridSize="10" guides="1" tooltips="1" connect="1" arrows="1" fold="1" page="1" pageScale="1" pageWidth="850" pageHeight="1100" math="0" shadow="0">
      <root>
        <mxCell id="0" />
        <mxCell id="1" parent="0" />
        <mxCell id="6wBbWVqnGqKWS7hx0yii-4" value="" style="icon;html=1;image=img/clipart/Gear_128x128.png" vertex="1" parent="1">
          <mxGeometry x="-80" y="350" width="60" height="60" as="geometry" />
        </mxCell>
        <mxCell id="6wBbWVqnGqKWS7hx0yii-5" value="Logging Provider (.nupkg)" style="label;whiteSpace=wrap;html=1;image=img/clipart/Gear_128x128.png" vertex="1" parent="1">
          <mxGeometry x="-20" y="350" width="110" height="60" as="geometry" />
        </mxCell>
        <mxCell id="6wBbWVqnGqKWS7hx0yii-6" value="" style="edgeStyle=elbowEdgeStyle;elbow=horizontal;endArrow=classic;html=1;curved=0;rounded=0;endSize=8;startSize=8;exitX=1;exitY=0.5;exitDx=0;exitDy=0;" edge="1" parent="1" source="6wBbWVqnGqKWS7hx0yii-22">
          <mxGeometry width="50" height="50" relative="1" as="geometry">
            <mxPoint x="340" y="330" as="sourcePoint" />
            <mxPoint x="410" y="330" as="targetPoint" />
          </mxGeometry>
        </mxCell>
        <mxCell id="6wBbWVqnGqKWS7hx0yii-7" style="edgeStyle=orthogonalEdgeStyle;rounded=0;orthogonalLoop=1;jettySize=auto;html=1;exitX=0.5;exitY=1;exitDx=0;exitDy=0;entryX=0.5;entryY=0;entryDx=0;entryDy=0;" edge="1" parent="1" source="6wBbWVqnGqKWS7hx0yii-8" target="6wBbWVqnGqKWS7hx0yii-11">
          <mxGeometry relative="1" as="geometry" />
        </mxCell>
        <mxCell id="6wBbWVqnGqKWS7hx0yii-8" value="Config Reader rest client" style="label;whiteSpace=wrap;html=1;align=center;verticalAlign=bottom;spacingLeft=0;spacingBottom=4;imageAlign=center;imageVerticalAlign=top;image=img/clipart/Gear_128x128.png" vertex="1" parent="1">
          <mxGeometry x="410" y="290" width="120" height="95" as="geometry" />
        </mxCell>
        <mxCell id="6wBbWVqnGqKWS7hx0yii-9" value="&lt;font style=&quot;font-size: 16px;&quot;&gt;Refresh config in&lt;br&gt;&amp;nbsp;every 12 hours&lt;/font&gt;" style="text;html=1;align=center;verticalAlign=middle;resizable=0;points=[];autosize=1;strokeColor=none;fillColor=none;" vertex="1" parent="1">
          <mxGeometry x="240" y="280" width="140" height="50" as="geometry" />
        </mxCell>
        <mxCell id="6wBbWVqnGqKWS7hx0yii-10" style="edgeStyle=orthogonalEdgeStyle;rounded=0;orthogonalLoop=1;jettySize=auto;html=1;exitX=0.5;exitY=1;exitDx=0;exitDy=0;entryX=0;entryY=0.5;entryDx=0;entryDy=0;entryPerimeter=0;" edge="1" parent="1" source="6wBbWVqnGqKWS7hx0yii-11" target="6wBbWVqnGqKWS7hx0yii-14">
          <mxGeometry relative="1" as="geometry">
            <mxPoint x="290" y="510" as="targetPoint" />
          </mxGeometry>
        </mxCell>
        <mxCell id="6wBbWVqnGqKWS7hx0yii-11" value="" style="rhombus;whiteSpace=wrap;html=1;" vertex="1" parent="1">
          <mxGeometry x="430" y="470" width="80" height="80" as="geometry" />
        </mxCell>
        <mxCell id="6wBbWVqnGqKWS7hx0yii-12" value="&lt;font style=&quot;font-size: 16px;&quot;&gt;check&amp;nbsp; config in&amp;nbsp; redis store&lt;/font&gt;" style="text;html=1;align=center;verticalAlign=middle;resizable=0;points=[];autosize=1;strokeColor=none;fillColor=none;" vertex="1" parent="1">
          <mxGeometry x="360" y="410" width="220" height="30" as="geometry" />
        </mxCell>
        <mxCell id="6wBbWVqnGqKWS7hx0yii-13" value="&lt;font style=&quot;font-size: 14px;&quot;&gt;&lt;b&gt;yes&lt;/b&gt;, read from &lt;br&gt;redis store&lt;/font&gt;" style="text;html=1;align=center;verticalAlign=middle;resizable=0;points=[];autosize=1;strokeColor=none;fillColor=none;" vertex="1" parent="1">
          <mxGeometry x="350" y="550" width="110" height="50" as="geometry" />
        </mxCell>
        <mxCell id="6wBbWVqnGqKWS7hx0yii-14" value="" style="shape=cylinder3;whiteSpace=wrap;html=1;boundedLbl=1;backgroundOutline=1;size=15;direction=south;" vertex="1" parent="1">
          <mxGeometry x="430" y="640" width="80" height="60" as="geometry" />
        </mxCell>
        <mxCell id="6wBbWVqnGqKWS7hx0yii-15" value="&lt;font style=&quot;font-size: 14px;&quot;&gt;&lt;b&gt;No&lt;/b&gt; , read from database&lt;/font&gt;" style="text;html=1;align=center;verticalAlign=middle;resizable=0;points=[];autosize=1;strokeColor=none;fillColor=none;rotation=0;" vertex="1" parent="1">
          <mxGeometry x="530" y="520" width="180" height="30" as="geometry" />
        </mxCell>
        <mxCell id="6wBbWVqnGqKWS7hx0yii-16" value="" style="shape=cylinder3;whiteSpace=wrap;html=1;boundedLbl=1;backgroundOutline=1;size=15;" vertex="1" parent="1">
          <mxGeometry x="600" y="320" width="60" height="80" as="geometry" />
        </mxCell>
        <mxCell id="6wBbWVqnGqKWS7hx0yii-17" value="" style="endArrow=classic;html=1;rounded=0;exitX=1;exitY=0.5;exitDx=0;exitDy=0;entryX=0.5;entryY=1;entryDx=0;entryDy=0;entryPerimeter=0;" edge="1" parent="1" source="6wBbWVqnGqKWS7hx0yii-11" target="6wBbWVqnGqKWS7hx0yii-16">
          <mxGeometry width="50" height="50" relative="1" as="geometry">
            <mxPoint x="590" y="510" as="sourcePoint" />
            <mxPoint x="640" y="460" as="targetPoint" />
            <Array as="points">
              <mxPoint x="630" y="510" />
            </Array>
          </mxGeometry>
        </mxCell>
        <mxCell id="6wBbWVqnGqKWS7hx0yii-18" value="" style="endArrow=classic;html=1;rounded=0;exitX=1;exitY=0.5;exitDx=0;exitDy=0;exitPerimeter=0;entryX=0.5;entryY=0;entryDx=0;entryDy=0;entryPerimeter=0;" edge="1" parent="1" source="6wBbWVqnGqKWS7hx0yii-16" target="6wBbWVqnGqKWS7hx0yii-14">
          <mxGeometry width="50" height="50" relative="1" as="geometry">
            <mxPoint x="400" y="510" as="sourcePoint" />
            <mxPoint x="450" y="460" as="targetPoint" />
            <Array as="points">
              <mxPoint x="830" y="360" />
              <mxPoint x="830" y="560" />
              <mxPoint x="830" y="670" />
            </Array>
          </mxGeometry>
        </mxCell>
        <mxCell id="6wBbWVqnGqKWS7hx0yii-19" value="Redis strore" style="text;html=1;align=center;verticalAlign=middle;resizable=0;points=[];autosize=1;strokeColor=none;fillColor=none;" vertex="1" parent="1">
          <mxGeometry x="425" y="708" width="90" height="30" as="geometry" />
        </mxCell>
        <mxCell id="6wBbWVqnGqKWS7hx0yii-20" value="&lt;font style=&quot;font-size: 14px;&quot;&gt;database&lt;/font&gt;" style="text;html=1;align=center;verticalAlign=middle;resizable=0;points=[];autosize=1;strokeColor=none;fillColor=none;" vertex="1" parent="1">
          <mxGeometry x="580" y="290" width="80" height="30" as="geometry" />
        </mxCell>
        <mxCell id="6wBbWVqnGqKWS7hx0yii-21" value="&lt;font style=&quot;font-size: 15px;&quot;&gt;store config in redis store&lt;/font&gt;" style="text;html=1;align=center;verticalAlign=middle;resizable=0;points=[];autosize=1;strokeColor=none;fillColor=none;" vertex="1" parent="1">
          <mxGeometry x="545" y="630" width="190" height="30" as="geometry" />
        </mxCell>
        <mxCell id="6wBbWVqnGqKWS7hx0yii-23" value="&lt;font style=&quot;font-size: 14px;&quot;&gt;Consumer&lt;/font&gt;&lt;br style=&quot;border-color: var(--border-color); font-size: 16px; background-color: rgb(255, 255, 255);&quot;&gt;&lt;span style=&quot;font-size: 16px; background-color: rgb(255, 255, 255);&quot;&gt;.net application&lt;/span&gt;" style="text;html=1;align=center;verticalAlign=middle;resizable=0;points=[];autosize=1;strokeColor=none;fillColor=none;" vertex="1" parent="1">
          <mxGeometry x="-115" y="430" width="130" height="50" as="geometry" />
        </mxCell>
        <mxCell id="6wBbWVqnGqKWS7hx0yii-25" value="" style="edgeStyle=elbowEdgeStyle;elbow=horizontal;endArrow=classic;html=1;curved=0;rounded=0;endSize=8;startSize=8;exitX=1;exitY=0.5;exitDx=0;exitDy=0;" edge="1" parent="1" source="6wBbWVqnGqKWS7hx0yii-5" target="6wBbWVqnGqKWS7hx0yii-22">
          <mxGeometry width="50" height="50" relative="1" as="geometry">
            <mxPoint x="90" y="380" as="sourcePoint" />
            <mxPoint x="410" y="330" as="targetPoint" />
          </mxGeometry>
        </mxCell>
        <mxCell id="6wBbWVqnGqKWS7hx0yii-22" value="Config provider (.nupkg)" style="label;whiteSpace=wrap;html=1;image=img/clipart/Gear_128x128.png" vertex="1" parent="1">
          <mxGeometry x="90" y="330" width="140" height="110" as="geometry" />
        </mxCell>
        <mxCell id="6wBbWVqnGqKWS7hx0yii-26" value="" style="endArrow=classic;html=1;rounded=0;entryX=0.5;entryY=1;entryDx=0;entryDy=0;entryPerimeter=0;" edge="1" parent="1" source="6wBbWVqnGqKWS7hx0yii-5" target="6wBbWVqnGqKWS7hx0yii-27">
          <mxGeometry width="50" height="50" relative="1" as="geometry">
            <mxPoint x="40" y="305" as="sourcePoint" />
            <mxPoint x="44" y="280" as="targetPoint" />
          </mxGeometry>
        </mxCell>
        <mxCell id="6wBbWVqnGqKWS7hx0yii-27" value="" style="html=1;whiteSpace=wrap;shape=isoCube2;backgroundOutline=1;isoAngle=15;" vertex="1" parent="1">
          <mxGeometry x="-10" y="180" width="90" height="100" as="geometry" />
        </mxCell>
        <mxCell id="6wBbWVqnGqKWS7hx0yii-28" value="&lt;font style=&quot;font-size: 16px;&quot;&gt;Push into Dynatrace&lt;/font&gt;" style="text;html=1;align=center;verticalAlign=middle;resizable=0;points=[];autosize=1;strokeColor=none;fillColor=none;" vertex="1" parent="1">
          <mxGeometry x="-50" y="140" width="170" height="30" as="geometry" />
        </mxCell>
        <mxCell id="6wBbWVqnGqKWS7hx0yii-29" value="" style="endArrow=classic;html=1;rounded=0;" edge="1" parent="1">
          <mxGeometry width="50" height="50" relative="1" as="geometry">
            <mxPoint x="30" y="310" as="sourcePoint" />
            <mxPoint x="232" y="234" as="targetPoint" />
            <Array as="points">
              <mxPoint x="230" y="310" />
            </Array>
          </mxGeometry>
        </mxCell>
        <mxCell id="6wBbWVqnGqKWS7hx0yii-30" value="Elastic Search" style="ellipse;shape=cloud;whiteSpace=wrap;html=1;" vertex="1" parent="1">
          <mxGeometry x="150" y="150" width="160" height="80" as="geometry" />
        </mxCell>
      </root>
    </mxGraphModel>
  </diagram>
</mxfile>
